<svg width="116" height="32" viewBox="0 0 116 32" fill="none" xmlns="http://www.w3.org/2000/svg">
<path d="M18.6922 14.769C18.6607 11.388 21.4691 9.72901 21.5953 9.66601C19.9965 7.35601 17.5352 7.04101 16.6516 7.00951C14.6005 6.77851 12.5915 8.23801 11.5396 8.23801C10.4562 8.23801 8.83636 7.02001 7.09029 7.06201C4.84984 7.09351 2.74614 8.39551 1.5891 10.422C-0.798604 14.517 0.979026 20.586 3.27206 23.9145C4.40806 25.542 5.74391 27.3795 7.47947 27.306C9.19399 27.2325 9.83562 26.214 11.8972 26.214C13.9378 26.214 14.5269 27.2955 16.315 27.264C18.1558 27.222 19.3128 25.6155 20.4172 23.967C21.7321 22.098 22.2685 20.2605 22.2895 20.166C22.2475 20.145 18.7132 18.801 18.6922 14.748V14.769ZM15.3263 4.81501C16.2414 3.66001 16.8725 2.11651 16.6937 0.531006C15.3684 0.583506 13.7064 1.44451 12.7492 2.56801C11.9078 3.55501 11.1399 5.19301 11.3398 6.70501C12.8334 6.81001 14.3691 5.94901 15.3368 4.81501H15.3263ZM43.4212 27.075H41.0335L39.7293 22.98H35.1747L33.9335 27.075H31.6195L36.1109 13.11H38.8878L43.4107 27.075H43.4212ZM39.319 21.2475L38.162 17.604C38.0252 17.226 37.7938 16.344 37.4467 14.979H37.4047C37.2679 15.567 37.047 16.449 36.742 17.604L35.5639 21.2475H39.3295H39.319ZM55.0127 21.93C55.0127 23.631 54.5498 24.975 53.6242 25.983C52.7827 26.865 51.7624 27.306 50.5318 27.306C49.1959 27.306 48.2492 26.8335 47.6602 25.878H47.6181V31.1805H45.3777V20.334C45.3777 19.2525 45.3461 18.15 45.2935 17.016H47.271L47.3972 18.6225H47.4393C48.1756 17.415 49.3327 16.8165 50.8368 16.8165C52.0254 16.8165 53.0141 17.2995 53.8135 18.234C54.6024 19.179 55.0021 20.418 55.0021 21.951L55.0127 21.93ZM52.7301 22.0035C52.7301 21.0165 52.4987 20.2185 52.0569 19.5885C51.5731 18.906 50.921 18.5805 50.1005 18.5805C49.5535 18.5805 49.0487 18.7695 48.5964 19.137C48.1441 19.5045 47.8601 19.977 47.7128 20.5755C47.6497 20.859 47.6076 21.0795 47.6076 21.258V22.938C47.6076 23.673 47.839 24.303 48.2913 24.7965C48.7331 25.3005 49.3221 25.5525 50.0374 25.5525C50.8789 25.5525 51.5415 25.2375 52.0149 24.5865C52.4882 23.9355 52.7196 23.0745 52.7196 22.014L52.7301 22.0035ZM66.6251 21.93C66.6251 23.631 66.1623 24.975 65.2261 25.983C64.4057 26.865 63.3644 27.306 62.1337 27.306C60.8084 27.306 59.8512 26.8335 59.2727 25.878H59.2411V31.1805H57.0007V20.334C57.0007 19.2525 56.9691 18.15 56.9165 17.016H58.8835L59.0097 18.6225H59.0518C59.7881 17.415 60.9241 16.8165 62.4493 16.8165C63.6378 16.8165 64.6371 17.2995 65.426 18.234C66.2254 19.179 66.6251 20.418 66.6251 21.951V21.93ZM64.3426 22.0035C64.3426 21.0165 64.1322 20.2185 63.6694 19.5885C63.175 18.906 62.5334 18.5805 61.713 18.5805C61.1555 18.5805 60.6611 18.7695 60.2088 19.137C59.767 19.5045 59.4725 19.977 59.3358 20.5755C59.2621 20.859 59.2306 21.0795 59.2306 21.258V22.938C59.2306 23.673 59.441 24.303 59.9038 24.7965C60.3666 25.3005 60.9556 25.5525 61.6709 25.5525C62.5124 25.5525 63.175 25.2375 63.6484 24.5865C64.1112 23.9355 64.3531 23.0745 64.3531 22.014L64.3426 22.0035ZM79.6049 23.1585C79.6049 24.345 79.1842 25.311 78.3638 26.067C77.4487 26.8755 76.1759 27.285 74.5455 27.285C73.0414 27.285 71.8318 27.0015 70.9166 26.4135L71.4426 24.5445C72.4208 25.1325 73.5042 25.4265 74.6823 25.4265C75.5238 25.4265 76.1864 25.2375 76.6598 24.8595C77.1226 24.4815 77.3645 23.967 77.3645 23.337C77.3645 22.77 77.1752 22.287 76.786 21.8985C76.4073 21.51 75.7552 21.1635 74.8611 20.817C72.4103 19.9035 71.1796 18.57 71.1796 16.827C71.1796 15.672 71.6004 14.727 72.4734 13.992C73.3149 13.257 74.4719 12.8895 75.9024 12.8895C77.1857 12.8895 78.2375 13.0995 79.0895 13.551L78.511 15.3885C77.7116 14.9685 76.8281 14.7585 75.8288 14.7585C75.0399 14.7585 74.4193 14.937 73.9775 15.3255C73.5884 15.6825 73.4095 16.1025 73.4095 16.6065C73.4095 17.1525 73.6199 17.6145 74.0406 17.9715C74.4193 18.3075 75.0925 18.6645 76.0812 19.053C77.2909 19.536 78.185 20.103 78.7424 20.754C79.3104 21.384 79.5839 22.203 79.5839 23.169L79.6049 23.1585ZM87.031 18.675H84.5487V23.5785C84.5487 24.8175 84.9694 25.437 85.853 25.437C86.2527 25.437 86.5892 25.4055 86.8522 25.332L86.9153 27.033C86.463 27.201 85.8845 27.285 85.1587 27.285C84.2752 27.285 83.5809 27.012 83.0761 26.4765C82.5817 25.9515 82.3398 25.0275 82.3398 23.7465V18.6855H80.8672V17.0055H82.3398V15.168L84.5487 14.5065V17.0265H87.01V18.7065L87.031 18.675ZM98.1806 21.9615C98.1806 23.505 97.7284 24.7755 96.8448 25.773C95.8981 26.7915 94.678 27.306 93.1423 27.306C91.6697 27.306 90.4916 26.8125 89.6186 25.836C88.735 24.8595 88.2933 23.631 88.2933 22.1295C88.2933 20.5545 88.735 19.2735 89.6607 18.276C90.5547 17.289 91.7644 16.785 93.3106 16.785C94.7832 16.785 95.9823 17.289 96.8869 18.255C97.7284 19.221 98.1701 20.46 98.1701 21.9615H98.1806ZM95.8455 22.035C95.8455 21.09 95.6352 20.3025 95.246 19.641C94.7832 18.8325 94.11 18.4335 93.2475 18.4335C92.3429 18.4335 91.6487 18.8325 91.1858 19.641C90.7651 20.3025 90.5863 21.111 90.5863 22.077C90.5863 23.001 90.7756 23.799 91.1858 24.4605C91.6697 25.2795 92.3429 25.6785 93.2159 25.6785C94.0784 25.6785 94.7516 25.2585 95.2355 24.45C95.6352 23.7675 95.8455 22.959 95.8455 22.035ZM105.459 18.969C105.249 18.927 104.997 18.906 104.755 18.906C103.966 18.906 103.356 19.221 102.925 19.7985C102.567 20.3235 102.378 20.9955 102.378 21.7935V27.075H100.137L100.158 20.1765C100.158 19.0215 100.127 17.9715 100.074 17.0055H102.009L102.094 18.948H102.157C102.399 18.276 102.767 17.751 103.282 17.3415C103.777 16.9845 104.313 16.8165 104.902 16.8165C105.112 16.8165 105.281 16.8165 105.449 16.848V18.9795L105.459 18.969ZM115.494 21.5625C115.494 21.9615 115.463 22.2975 115.41 22.581H108.678C108.71 23.5785 109.036 24.3345 109.656 24.8595C110.235 25.3215 110.971 25.5525 111.865 25.5525C112.865 25.5525 113.759 25.395 114.6 25.08L114.937 26.655C113.99 27.054 112.854 27.264 111.571 27.264C109.993 27.264 108.762 26.802 107.868 25.899C106.974 24.954 106.532 23.736 106.532 22.1925C106.532 20.67 106.953 19.3995 107.774 18.3915C108.657 17.3205 109.835 16.7745 111.318 16.7745C112.77 16.7745 113.874 17.2995 114.621 18.381C115.221 19.242 115.526 20.292 115.526 21.552L115.494 21.5625ZM113.348 20.985C113.369 20.3235 113.222 19.746 112.928 19.263C112.528 18.633 111.928 18.318 111.139 18.318C110.403 18.318 109.804 18.633 109.351 19.242C108.973 19.725 108.752 20.292 108.678 20.985H113.348ZM38.5932 4.50001C38.5932 5.76001 38.2251 6.67351 37.4783 7.30351C36.7841 7.88101 35.7953 8.16451 34.5331 8.16451C33.902 8.16451 33.3761 8.12251 32.9343 8.05951V1.35001C33.5128 1.24501 34.1439 1.21351 34.8276 1.21351C36.0373 1.21351 36.9313 1.47601 37.5624 1.99051C38.2356 2.57851 38.5827 3.41851 38.5827 4.51051L38.5932 4.50001ZM37.4362 4.54201C37.4362 3.74401 37.2258 3.12451 36.8051 2.69401C36.3633 2.27401 35.7533 2.06401 34.9328 2.06401C34.5857 2.06401 34.3017 2.06401 34.0387 2.12701V7.27201C34.1755 7.27201 34.4279 7.29301 34.775 7.29301C35.6165 7.29301 36.2792 7.05151 36.742 6.58951C37.1838 6.10651 37.4152 5.43451 37.4152 4.53151L37.4362 4.54201ZM44.7466 5.59201C44.7466 6.34801 44.5362 6.97801 44.1155 7.46101C43.6421 7.96501 43.0426 8.21701 42.2853 8.21701C41.549 8.21701 40.981 7.97551 40.5497 7.48201C40.129 7.00951 39.9186 6.40051 39.9186 5.66551C39.9186 4.90951 40.129 4.30051 40.5812 3.79651C41.023 3.31351 41.6331 3.06151 42.3694 3.06151C43.1057 3.06151 43.6947 3.30301 44.1365 3.79651C44.5572 4.25851 44.7676 4.84651 44.7676 5.60251L44.7466 5.59201ZM43.6106 5.62351C43.6106 5.17201 43.5054 4.78351 43.3161 4.44751C43.0847 4.05901 42.7586 3.85951 42.3273 3.85951C41.8855 3.85951 41.549 4.04851 41.3175 4.43701C41.1072 4.75201 41.023 5.17201 41.023 5.63401C41.023 6.07501 41.1282 6.47401 41.3175 6.78901C41.5595 7.18801 41.8855 7.38751 42.3168 7.38751C42.7375 7.38751 43.0531 7.17751 43.295 6.78901C43.5054 6.45301 43.6106 6.05401 43.6106 5.60251V5.62351ZM53.0247 3.15601L51.4679 8.09101H50.4476L49.8165 5.95951C49.6377 5.40301 49.501 4.87801 49.3958 4.34251C49.2906 4.88851 49.1538 5.42401 48.975 5.94901L48.3018 8.08051H47.271L45.8195 3.14551H46.9555L47.5235 5.48701C47.6602 6.04351 47.7759 6.56851 47.8706 7.06201C47.9758 6.66301 48.102 6.13801 48.2913 5.48701L48.9961 3.13501H49.9007L50.5738 5.44501C50.7316 6.01201 50.8684 6.55801 50.9735 7.07251H50.9946C51.0682 6.56851 51.1839 6.02251 51.3312 5.44501L51.9412 3.13501H53.0141L53.0247 3.15601ZM58.7362 8.10151H57.6318V5.26651C57.6318 4.39501 57.2952 3.96451 56.6325 3.96451C56.3169 3.96451 56.0435 4.06951 55.8331 4.31101C55.6227 4.55251 55.5175 4.83601 55.5175 5.15101V8.09101H54.4236V4.56301C54.4236 4.12201 54.4236 3.64951 54.3921 3.14551H55.3703L55.4124 3.91201H55.4439C55.5701 3.68101 55.7595 3.49201 56.0119 3.32401C56.3275 3.11401 56.643 3.03001 57.0217 3.03001C57.4845 3.03001 57.8632 3.17701 58.1787 3.48151C58.5574 3.84901 58.7467 4.39501 58.7467 5.11951V8.09101L58.7362 8.10151ZM61.7866 8.10151H60.6716V0.888006H61.7761L61.7866 8.10151ZM68.266 5.59201C68.266 6.34801 68.0556 6.97801 67.6138 7.46101C67.151 7.96501 66.562 8.21701 65.7941 8.21701C65.0789 8.21701 64.5004 7.97551 64.0691 7.48201C63.6484 7.00951 63.417 6.40051 63.417 5.66551C63.417 4.90951 63.6273 4.30051 64.0901 3.79651C64.5319 3.31351 65.142 3.06151 65.8783 3.06151C66.6146 3.06151 67.1931 3.30301 67.6454 3.79651C68.0661 4.25851 68.2765 4.84651 68.2765 5.60251L68.266 5.59201ZM67.109 5.62351C67.109 5.17201 67.0248 4.78351 66.825 4.44751C66.583 4.05901 66.257 3.85951 65.8257 3.85951C65.3839 3.85951 65.0473 4.04851 64.8159 4.43701C64.6056 4.75201 64.5004 5.17201 64.5004 5.63401C64.5004 6.07501 64.6056 6.47401 64.8159 6.78901C65.0473 7.18801 65.3734 7.38751 65.8047 7.38751C66.2254 7.38751 66.541 7.17751 66.7934 6.78901C67.0038 6.45301 67.109 6.05401 67.109 5.60251V5.62351ZM73.5989 8.10151H72.6101L72.505 7.53451H72.4839C72.1473 7.97551 71.6635 8.20651 71.0429 8.20651C70.5801 8.20651 70.2014 8.05951 69.9174 7.75501C69.6544 7.50301 69.5282 7.15651 69.5282 6.75751C69.5282 6.15901 69.7807 5.70751 70.2855 5.37151C70.7904 5.05651 71.5057 4.89901 72.4313 4.90951V4.80451C72.4313 4.15351 72.0842 3.82801 71.4005 3.82801C70.9061 3.82801 70.4749 3.95401 70.1067 4.19551L69.8964 3.46051C70.3486 3.18751 70.9167 3.04051 71.5793 3.04051C72.8836 3.04051 73.5358 3.72301 73.5358 5.08801V6.91501C73.5358 7.41901 73.5568 7.81801 73.6094 8.10151H73.5989ZM72.4418 6.40051V5.66551C71.2427 5.63401 70.6327 5.95951 70.6327 6.65251C70.6327 6.90451 70.7063 7.10401 70.843 7.23001C70.9903 7.33501 71.1796 7.40851 71.39 7.40851C71.6319 7.40851 71.8633 7.33501 72.0632 7.17751C72.2735 7.03051 72.3998 6.83101 72.4524 6.60001V6.39001L72.4418 6.40051ZM79.8574 8.10151H78.8792L78.8371 7.31401H78.8161C78.5005 7.91251 77.9746 8.21701 77.2172 8.21701C76.6177 8.21701 76.1233 7.98601 75.7447 7.51351C75.3239 7.04101 75.1346 6.44251 75.1346 5.68651C75.1346 4.88851 75.345 4.23751 75.7867 3.74401C76.2075 3.28201 76.7018 3.05101 77.3119 3.05101C77.9746 3.05101 78.4479 3.26101 78.7109 3.72301H78.7319V0.888006H79.8364V6.76801C79.8364 7.25101 79.8364 7.69201 79.8679 8.10151H79.8574ZM78.7214 6.02251V5.18251C78.7214 5.04601 78.7214 4.93051 78.6898 4.84651C78.6267 4.58401 78.4795 4.35301 78.2901 4.17451C78.0798 3.98551 77.8273 3.90151 77.5538 3.90151C77.1331 3.90151 76.8175 4.05901 76.5756 4.38451C76.3442 4.69951 76.218 5.11951 76.218 5.64451C76.218 6.12751 76.3232 6.52651 76.5546 6.83101C76.7965 7.14601 77.1226 7.32451 77.5223 7.32451C77.6909 7.3295 77.8582 7.29395 78.0101 7.22086C78.1621 7.14776 78.2942 7.03926 78.3953 6.90451C78.6057 6.66301 78.7109 6.35851 78.7109 6.00151L78.7214 6.02251ZM89.2925 5.59201C89.2925 6.34801 89.0821 6.97801 88.6404 7.46101C88.1775 7.96501 87.5885 8.21701 86.8207 8.21701C86.0844 8.21701 85.5164 7.97551 85.0851 7.48201C84.6644 7.00951 84.4329 6.40051 84.4329 5.66551C84.4329 4.90951 84.6433 4.30051 85.1061 3.79651C85.5479 3.31351 86.158 3.06151 86.8943 3.06151C87.6306 3.06151 88.2196 3.30301 88.6614 3.79651C89.0821 4.25851 89.2925 4.84651 89.2925 5.60251V5.59201ZM88.1355 5.62351C88.1355 5.17201 88.0513 4.78351 87.8515 4.44751C87.6201 4.05901 87.294 3.85951 86.8627 3.85951C86.421 3.85951 86.0844 4.04851 85.853 4.43701C85.6426 4.75201 85.5584 5.17201 85.5584 5.63401C85.5584 6.07501 85.6636 6.47401 85.853 6.78901C86.0949 7.18801 86.421 7.38751 86.8522 7.38751C87.2729 7.38751 87.6095 7.17751 87.841 6.78901C88.0513 6.45301 88.1565 6.05401 88.1565 5.60251L88.1355 5.62351ZM95.2144 8.10151H94.1205V5.26651C94.1205 4.39501 93.7839 3.96451 93.1212 3.96451C92.7741 3.96451 92.5112 4.06951 92.3113 4.31101C92.101 4.55251 91.9958 4.83601 91.9958 5.15101V8.09101H90.9229V4.56301C90.9229 4.12201 90.9018 3.64951 90.8703 3.14551H91.838L91.8906 3.91201H91.9221C92.0484 3.68101 92.2377 3.49201 92.4901 3.32401C92.7847 3.11401 93.1212 3.03001 93.4789 3.03001C93.9417 3.03001 94.3204 3.17701 94.6359 3.48151C95.0146 3.84901 95.2039 4.39501 95.2039 5.11951V8.09101L95.2144 8.10151ZM102.641 3.97501H101.42V6.39001C101.42 6.99901 101.631 7.30351 102.051 7.30351C102.262 7.30351 102.43 7.28251 102.556 7.25101L102.588 8.09101C102.357 8.16451 102.062 8.19601 101.715 8.19601C101.294 8.19601 100.947 8.07001 100.695 7.80751C100.453 7.54501 100.326 7.10401 100.326 6.47401V3.97501H99.5901L99.6112 3.15601H100.326V2.24251L101.41 1.92751V3.13501H102.63V3.95401L102.641 3.97501ZM108.468 8.10151H107.363V5.28751C107.363 4.40551 107.048 3.95401 106.375 3.95401C105.849 3.95401 105.502 4.21651 105.323 4.73101C105.27 4.83601 105.26 4.97251 105.26 5.13001V8.10151H104.155V0.888006H105.249V3.87001H105.27C105.617 3.32401 106.112 3.05101 106.743 3.05101C107.216 3.05101 107.584 3.19801 107.9 3.50251C108.268 3.87001 108.447 4.42651 108.447 5.16151V8.10151H108.468ZM114.484 5.39251C114.484 5.60251 114.484 5.76001 114.453 5.89651H111.15C111.15 6.37951 111.318 6.75751 111.623 7.00951C111.907 7.21951 112.254 7.34551 112.707 7.34551C113.201 7.34551 113.653 7.27201 114.053 7.11451L114.221 7.88101C113.759 8.09101 113.201 8.19601 112.559 8.19601C111.792 8.19601 111.192 7.96501 110.75 7.51351C110.309 7.06201 110.098 6.46351 110.098 5.68651C110.098 4.95151 110.309 4.32151 110.708 3.82801C111.129 3.30301 111.707 3.03001 112.444 3.03001C113.149 3.03001 113.706 3.31351 114.064 3.83851C114.348 4.25851 114.484 4.78351 114.484 5.39251ZM113.433 5.10901C113.454 4.79401 113.38 4.50001 113.222 4.26901C113.033 3.95401 112.749 3.80701 112.349 3.80701C111.991 3.80701 111.697 3.95401 111.476 4.25851C111.287 4.48951 111.182 4.78351 111.161 5.09851H113.443L113.433 5.10901Z" fill="white"/>
</svg>
